# xmcd
#
# Track frame offsets:
#	150
#	9810
#	19208
#	31471
#	43393
#	57307
#	69814
#	81361
#
# Disc length: 1233 seconds
# Revision: 1
# Processed by: cddbd v1.5.2PL0 Copyright (c) Steve Scherf et al.
# Submitted via: dBpowerAMP V12.0
#
DISCID=5f04cf08
DTITLE=Johnny Cash - The Essential Johnny Cash
DYEAR=2002
DGENRE=Country
TTITLE0=What Do I Care
TTITLE1=I Got Stripes
TTITLE2=Understand Your Man
TTITLE3=What Is Truth
TTITLE4=Oney
TTITLE5=Any Old Wind That Blows
TTITLE6=A Thing Called Love
TTITLE7=Without Love
EXTD=
EXTT0=
EXTT1=
EXTT2=
EXTT3=
EXTT4=
EXTT5=
EXTT6=
EXTT7=
PLAYORDER=
